ply
format ascii 1.0
comment PCL generated
element vertex 691
property float x
property float y
property float z
property uchar red
property uchar green
property uchar blue
element camera 1
property float view_px
property float view_py
property float view_pz
property float x_axisx
property float x_axisy
property float x_axisz
property float y_axisx
property float y_axisy
property float y_axisz
property float z_axisx
property float z_axisy
property float z_axisz
property float focal
property float scalex
property float scaley
property float centerx
property float centery
property int viewportx
property int viewporty
property float k1
property float k2
end_header
-25.4 0 -52.105297 255 255 255
-27.940001 0 -54.645294 255 255 255
-27.940001 0 -52.105297 255 255 255
-38.099998 0 49.494705 255 255 255
-35.560001 0 49.494705 255 255 255
-25.35622 1.490665 -52.105297 255 255 255
-25.225033 2.976192 -52.105297 255 255 255
-25.006889 4.4514599 -52.105297 255 255 255
-24.702541 5.9113822 -52.105297 255 255 255
-24.31304 7.3509259 -52.105297 255 255 255
-23.839725 8.76513 -52.105297 255 255 255
-23.284229 10.149119 -52.105297 255 255 255
-22.64847 11.498122 -52.105297 255 255 255
-21.934635 12.807489 -52.105297 255 255 255
-21.145187 14.072705 -52.105297 255 255 255
-20.282848 15.28941 -52.105297 255 255 255
-19.35059 16.453409 -52.105297 255 255 255
-18.351625 17.56069 -52.105297 255 255 255
-17.2894 18.607435 -52.105297 255 255 255
-16.167574 19.590038 -52.105297 255 255 255
-14.990014 20.505108 -52.105297 255 255 255
-13.760782 21.349495 -52.105297 255 255 255
-12.484112 22.120283 -52.105297 255 255 255
-11.164408 22.814819 -52.105297 255 255 255
-9.8062181 23.430708 -52.105297 255 255 255
-8.4142227 23.965828 -52.105297 255 255 255
-6.9932232 24.418329 -52.105297 255 255 255
-5.5481162 24.786657 -52.105297 255 255 255
-4.0838828 25.069542 -52.105297 255 255 255
-2.6055729 25.266005 -52.105297 255 255 255
-1.1182801 25.375372 -52.105297 255 255 255
0.37286699 25.397263 -52.105297 255 255 255
1.862729 25.331606 -52.105297 255 255 255
3.3461699 25.178625 -52.105297 255 255 255
4.8180761 24.938848 -52.105297 255 255 255
6.2733731 24.613102 -52.105297 255 255 255
7.7070451 24.202509 -52.105297 255 255 255
9.1141491 23.708487 -52.105297 255 255 255
10.489834 23.132734 -52.105297 255 255 255
11.829359 22.47724 -52.105297 255 255 255
13.128105 21.744261 -52.105297 255 255 255
14.381596 20.936325 -52.105297 255 255 255
15.585511 20.056217 -52.105297 255 255 255
16.735699 19.106972 -52.105297 255 255 255
17.828196 18.09186 -52.105297 255 255 255
18.859236 17.014383 -52.105297 255 255 255
19.825264 15.878253 -52.105297 255 255 255
20.722948 14.687388 -52.105297 255 255 255
21.549198 13.445892 -52.105297 255 255 255
22.301165 12.158046 -52.105297 255 255 255
22.976254 10.828288 -52.105297 255 255 255
23.572138 9.4612026 -52.105297 255 255 255
24.086763 8.0615034 -52.105297 255 255 255
24.518358 6.6340132 -52.105297 255 255 255
24.865433 5.1836548 -52.105297 255 255 255
25.126789 3.7154269 -52.105297 255 255 255
25.301531 2.2343919 -52.105297 255 255 255
25.389053 0.74565399 -52.105297 255 255 255
25.389053 -0.74565399 -52.105297 255 255 255
25.301531 -2.2343919 -52.105297 255 255 255
25.126789 -3.7154269 -52.105297 255 255 255
24.865433 -5.1836548 -52.105297 255 255 255
24.518358 -6.6340132 -52.105297 255 255 255
24.086763 -8.0615034 -52.105297 255 255 255
23.572138 -9.4612026 -52.105297 255 255 255
22.976254 -10.828288 -52.105297 255 255 255
22.301165 -12.158046 -52.105297 255 255 255
21.549198 -13.445892 -52.105297 255 255 255
20.722948 -14.687388 -52.105297 255 255 255
19.825264 -15.878253 -52.105297 255 255 255
18.859236 -17.014383 -52.105297 255 255 255
17.828196 -18.09186 -52.105297 255 255 255
16.735699 -19.106972 -52.105297 255 255 255
15.585511 -20.056217 -52.105297 255 255 255
14.381596 -20.936325 -52.105297 255 255 255
13.128105 -21.744261 -52.105297 255 255 255
11.829359 -22.47724 -52.105297 255 255 255
10.489834 -23.132734 -52.105297 255 255 255
9.1141491 -23.708487 -52.105297 255 255 255
7.7070451 -24.202509 -52.105297 255 255 255
6.2733731 -24.613102 -52.105297 255 255 255
4.8180761 -24.938848 -52.105297 255 255 255
3.3461699 -25.178625 -52.105297 255 255 255
1.862729 -25.331606 -52.105297 255 255 255
0.37286699 -25.397263 -52.105297 255 255 255
-1.1182801 -25.375372 -52.105297 255 255 255
-2.6055729 -25.266005 -52.105297 255 255 255
-4.0838828 -25.069542 -52.105297 255 255 255
-5.5481162 -24.786657 -52.105297 255 255 255
-6.9932232 -24.418329 -52.105297 255 255 255
-8.4142227 -23.965828 -52.105297 255 255 255
-9.8062181 -23.430708 -52.105297 255 255 255
-11.164408 -22.814819 -52.105297 255 255 255
-12.484112 -22.120283 -52.105297 255 255 255
-13.760782 -21.349495 -52.105297 255 255 255
-14.990014 -20.505108 -52.105297 255 255 255
-16.167574 -19.590038 -52.105297 255 255 255
-17.2894 -18.607435 -52.105297 255 255 255
-18.351625 -17.56069 -52.105297 255 255 255
-19.35059 -16.453409 -52.105297 255 255 255
-20.282848 -15.28941 -52.105297 255 255 255
-21.145187 -14.072705 -52.105297 255 255 255
-21.934635 -12.807489 -52.105297 255 255 255
-22.64847 -11.498122 -52.105297 255 255 255
-23.284229 -10.149119 -52.105297 255 255 255
-23.839725 -8.76513 -52.105297 255 255 255
-24.31304 -7.3509259 -52.105297 255 255 255
-24.702541 -5.9113822 -52.105297 255 255 255
-25.006889 -4.4514599 -52.105297 255 255 255
-25.225033 -2.976192 -52.105297 255 255 255
-25.35622 -1.490665 -52.105297 255 255 255
-27.9004 1.487028 -54.645294 255 255 255
-27.781713 2.96984 -54.645294 255 255 255
-27.584278 4.4442339 -54.645294 255 255 255
-27.308651 5.9060311 -54.645294 255 255 255
-26.955614 7.3510861 -54.645294 255 255 255
-26.526169 8.7753029 -54.645294 255 255 255
-26.021532 10.174646 -54.645294 255 255 255
-25.443136 11.545148 -54.645294 255 255 255
-24.792618 12.882924 -54.645294 255 255 255
-24.071821 14.184182 -54.645294 255 255 255
-23.282791 15.445234 -54.645294 255 255 255
-22.427763 16.662504 -54.645294 255 255 255
-21.509161 17.832542 -54.645294 255 255 255
-20.529591 18.952032 -54.645294 255 255 255
-19.491825 20.017801 -54.645294 255 255 255
-18.398808 21.026827 -54.645294 255 255 255
-17.253637 21.97625 -54.645294 255 255 255
-16.059561 22.86338 -54.645294 255 255 255
-14.81996 23.685699 -54.645294 255 255 255
-13.538351 24.440882 -54.645294 255 255 255
-12.218367 25.126781 -54.645294 255 255 255
-10.863747 25.741457 -54.645294 255 255 255
-9.4783344 26.283165 -54.645294 255 255 255
-8.0660534 26.750372 -54.645294 255 255 255
-6.630908 27.14175 -54.645294 255 255 255
-5.1769671 27.456194 -54.645294 255 255 255
-3.7083509 27.69281 -54.645294 255 255 255
-2.229224 27.850927 -54.645294 255 255 255
-0.74377698 27.930098 -54.645294 255 255 255
0.74377698 27.930098 -54.645294 255 255 255
2.229224 27.850927 -54.645294 255 255 255
3.7083509 27.69281 -54.645294 255 255 255
5.1769671 27.456194 -54.645294 255 255 255
6.630908 27.14175 -54.645294 255 255 255
8.0660534 26.750372 -54.645294 255 255 255
9.4783344 26.283165 -54.645294 255 255 255
10.863747 25.741457 -54.645294 255 255 255
12.218367 25.126781 -54.645294 255 255 255
13.538351 24.440882 -54.645294 255 255 255
14.81996 23.685699 -54.645294 255 255 255
16.059561 22.86338 -54.645294 255 255 255
17.253637 21.97625 -54.645294 255 255 255
18.398808 21.026827 -54.645294 255 255 255
19.491825 20.017801 -54.645294 255 255 255
20.529591 18.952032 -54.645294 255 255 255
21.509161 17.832542 -54.645294 255 255 255
22.427763 16.662504 -54.645294 255 255 255
23.282791 15.445234 -54.645294 255 255 255
24.071821 14.184182 -54.645294 255 255 255
24.792618 12.882924 -54.645294 255 255 255
25.443136 11.545148 -54.645294 255 255 255
26.021532 10.174646 -54.645294 255 255 255
26.526169 8.7753029 -54.645294 255 255 255
26.955614 7.3510861 -54.645294 255 255 255
27.308651 5.9060311 -54.645294 255 255 255
27.584278 4.4442339 -54.645294 255 255 255
27.781713 2.96984 -54.645294 255 255 255
27.9004 1.487028 -54.645294 255 255 255
27.940001 -0 -54.645294 255 255 255
27.9004 -1.487028 -54.645294 255 255 255
27.781713 -2.96984 -54.645294 255 255 255
27.584278 -4.4442339 -54.645294 255 255 255
27.308651 -5.9060311 -54.645294 255 255 255
26.955614 -7.3510861 -54.645294 255 255 255
26.526169 -8.7753029 -54.645294 255 255 255
26.021532 -10.174646 -54.645294 255 255 255
25.443136 -11.545148 -54.645294 255 255 255
24.792618 -12.882924 -54.645294 255 255 255
24.071821 -14.184182 -54.645294 255 255 255
23.282791 -15.445234 -54.645294 255 255 255
22.427763 -16.662504 -54.645294 255 255 255
21.509161 -17.832542 -54.645294 255 255 255
20.529591 -18.952032 -54.645294 255 255 255
19.491825 -20.017801 -54.645294 255 255 255
18.398808 -21.026827 -54.645294 255 255 255
17.253637 -21.97625 -54.645294 255 255 255
16.059561 -22.86338 -54.645294 255 255 255
14.81996 -23.685699 -54.645294 255 255 255
13.538351 -24.440882 -54.645294 255 255 255
12.218367 -25.126781 -54.645294 255 255 255
10.863747 -25.741457 -54.645294 255 255 255
9.4783344 -26.283165 -54.645294 255 255 255
8.0660534 -26.750372 -54.645294 255 255 255
6.630908 -27.14175 -54.645294 255 255 255
5.1769671 -27.456194 -54.645294 255 255 255
3.7083509 -27.69281 -54.645294 255 255 255
2.229224 -27.850927 -54.645294 255 255 255
0.74377698 -27.930098 -54.645294 255 255 255
-0.74377698 -27.930098 -54.645294 255 255 255
-2.229224 -27.850927 -54.645294 255 255 255
-3.7083509 -27.69281 -54.645294 255 255 255
-5.1769671 -27.456194 -54.645294 255 255 255
-6.630908 -27.14175 -54.645294 255 255 255
-8.0660534 -26.750372 -54.645294 255 255 255
-9.4783344 -26.283165 -54.645294 255 255 255
-10.863747 -25.741457 -54.645294 255 255 255
-12.218367 -25.126781 -54.645294 255 255 255
-13.538351 -24.440882 -54.645294 255 255 255
-14.81996 -23.685699 -54.645294 255 255 255
-16.059561 -22.86338 -54.645294 255 255 255
-17.253637 -21.97625 -54.645294 255 255 255
-18.398808 -21.026827 -54.645294 255 255 255
-19.491825 -20.017801 -54.645294 255 255 255
-20.529591 -18.952032 -54.645294 255 255 255
-21.509161 -17.832542 -54.645294 255 255 255
-22.427763 -16.662504 -54.645294 255 255 255
-23.282791 -15.445234 -54.645294 255 255 255
-24.071821 -14.184182 -54.645294 255 255 255
-24.792618 -12.882924 -54.645294 255 255 255
-25.443136 -11.545148 -54.645294 255 255 255
-26.021532 -10.174646 -54.645294 255 255 255
-26.526169 -8.7753029 -54.645294 255 255 255
-26.955614 -7.3510861 -54.645294 255 255 255
-27.308651 -5.9060311 -54.645294 255 255 255
-27.584278 -4.4442339 -54.645294 255 255 255
-27.781713 -2.96984 -54.645294 255 255 255
-27.9004 -1.487028 -54.645294 255 255 255
-27.9004 1.487028 -52.105297 255 255 255
-27.781713 2.96984 -52.105297 255 255 255
-27.584278 4.4442339 -52.105297 255 255 255
-27.308651 5.9060311 -52.105297 255 255 255
-26.955614 7.3510861 -52.105297 255 255 255
-26.526169 8.7753029 -52.105297 255 255 255
-26.021532 10.174646 -52.105297 255 255 255
-25.443136 11.545148 -52.105297 255 255 255
-24.792618 12.882924 -52.105297 255 255 255
-24.071821 14.184182 -52.105297 255 255 255
-23.282791 15.445234 -52.105297 255 255 255
-22.427763 16.662504 -52.105297 255 255 255
-21.509161 17.832542 -52.105297 255 255 255
-20.529591 18.952032 -52.105297 255 255 255
-19.491825 20.017801 -52.105297 255 255 255
-18.398808 21.026827 -52.105297 255 255 255
-17.253637 21.97625 -52.105297 255 255 255
-16.059561 22.86338 -52.105297 255 255 255
-14.81996 23.685699 -52.105297 255 255 255
-13.538351 24.440882 -52.105297 255 255 255
-12.218367 25.126781 -52.105297 255 255 255
-10.863747 25.741457 -52.105297 255 255 255
-9.4783344 26.283165 -52.105297 255 255 255
-8.0660534 26.750372 -52.105297 255 255 255
-6.630908 27.14175 -52.105297 255 255 255
-5.1769671 27.456194 -52.105297 255 255 255
-3.7083509 27.69281 -52.105297 255 255 255
-2.229224 27.850927 -52.105297 255 255 255
-0.74377698 27.930098 -52.105297 255 255 255
0.74377698 27.930098 -52.105297 255 255 255
2.229224 27.850927 -52.105297 255 255 255
3.7083509 27.69281 -52.105297 255 255 255
5.1769671 27.456194 -52.105297 255 255 255
6.630908 27.14175 -52.105297 255 255 255
8.0660534 26.750372 -52.105297 255 255 255
9.4783344 26.283165 -52.105297 255 255 255
10.863747 25.741457 -52.105297 255 255 255
12.218367 25.126781 -52.105297 255 255 255
13.538351 24.440882 -52.105297 255 255 255
14.81996 23.685699 -52.105297 255 255 255
16.059561 22.86338 -52.105297 255 255 255
17.253637 21.97625 -52.105297 255 255 255
18.398808 21.026827 -52.105297 255 255 255
19.491825 20.017801 -52.105297 255 255 255
20.529591 18.952032 -52.105297 255 255 255
21.509161 17.832542 -52.105297 255 255 255
22.427763 16.662504 -52.105297 255 255 255
23.282791 15.445234 -52.105297 255 255 255
24.071821 14.184182 -52.105297 255 255 255
24.792618 12.882924 -52.105297 255 255 255
25.443136 11.545148 -52.105297 255 255 255
26.021532 10.174646 -52.105297 255 255 255
26.526169 8.7753029 -52.105297 255 255 255
26.955614 7.3510861 -52.105297 255 255 255
27.308651 5.9060311 -52.105297 255 255 255
27.584278 4.4442339 -52.105297 255 255 255
27.781713 2.96984 -52.105297 255 255 255
27.9004 1.487028 -52.105297 255 255 255
27.940001 -0 -52.105297 255 255 255
27.9004 -1.487028 -52.105297 255 255 255
27.781713 -2.96984 -52.105297 255 255 255
27.584278 -4.4442339 -52.105297 255 255 255
27.308651 -5.9060311 -52.105297 255 255 255
26.955614 -7.3510861 -52.105297 255 255 255
26.526169 -8.7753029 -52.105297 255 255 255
26.021532 -10.174646 -52.105297 255 255 255
25.443136 -11.545148 -52.105297 255 255 255
24.792618 -12.882924 -52.105297 255 255 255
24.071821 -14.184182 -52.105297 255 255 255
23.282791 -15.445234 -52.105297 255 255 255
22.427763 -16.662504 -52.105297 255 255 255
21.509161 -17.832542 -52.105297 255 255 255
20.529591 -18.952032 -52.105297 255 255 255
19.491825 -20.017801 -52.105297 255 255 255
18.398808 -21.026827 -52.105297 255 255 255
17.253637 -21.97625 -52.105297 255 255 255
16.059561 -22.86338 -52.105297 255 255 255
14.81996 -23.685699 -52.105297 255 255 255
13.538351 -24.440882 -52.105297 255 255 255
12.218367 -25.126781 -52.105297 255 255 255
10.863747 -25.741457 -52.105297 255 255 255
9.4783344 -26.283165 -52.105297 255 255 255
8.0660534 -26.750372 -52.105297 255 255 255
6.630908 -27.14175 -52.105297 255 255 255
5.1769671 -27.456194 -52.105297 255 255 255
3.7083509 -27.69281 -52.105297 255 255 255
2.229224 -27.850927 -52.105297 255 255 255
0.74377698 -27.930098 -52.105297 255 255 255
-0.74377698 -27.930098 -52.105297 255 255 255
-2.229224 -27.850927 -52.105297 255 255 255
-3.7083509 -27.69281 -52.105297 255 255 255
-5.1769671 -27.456194 -52.105297 255 255 255
-6.630908 -27.14175 -52.105297 255 255 255
-8.0660534 -26.750372 -52.105297 255 255 255
-9.4783344 -26.283165 -52.105297 255 255 255
-10.863747 -25.741457 -52.105297 255 255 255
-12.218367 -25.126781 -52.105297 255 255 255
-13.538351 -24.440882 -52.105297 255 255 255
-14.81996 -23.685699 -52.105297 255 255 255
-16.059561 -22.86338 -52.105297 255 255 255
-17.253637 -21.97625 -52.105297 255 255 255
-18.398808 -21.026827 -52.105297 255 255 255
-19.491825 -20.017801 -52.105297 255 255 255
-20.529591 -18.952032 -52.105297 255 255 255
-21.509161 -17.832542 -52.105297 255 255 255
-22.427763 -16.662504 -52.105297 255 255 255
-23.282791 -15.445234 -52.105297 255 255 255
-24.071821 -14.184182 -52.105297 255 255 255
-24.792618 -12.882924 -52.105297 255 255 255
-25.443136 -11.545148 -52.105297 255 255 255
-26.021532 -10.174646 -52.105297 255 255 255
-26.526169 -8.7753029 -52.105297 255 255 255
-26.955614 -7.3510861 -52.105297 255 255 255
-27.308651 -5.9060311 -52.105297 255 255 255
-27.584278 -4.4442339 -52.105297 255 255 255
-27.781713 -2.96984 -52.105297 255 255 255
-27.9004 -1.487028 -52.105297 255 255 255
-38.070625 1.4957989 49.494705 255 255 255
-37.982552 2.9892919 49.494705 255 255 255
-37.835907 4.4781752 49.494705 255 255 255
-37.630924 5.9601531 49.494705 255 255 255
-37.36792 7.432941 49.494705 255 255 255
-37.047295 8.894268 49.494705 255 255 255
-36.669544 10.341881 49.494705 255 255 255
-36.235252 11.773547 49.494705 255 255 255
-35.74509 13.18706 49.494705 255 255 255
-35.19981 14.580239 49.494705 255 255 255
-34.600254 15.950936 49.494705 255 255 255
-33.94735 17.297037 49.494705 255 255 255
-33.2421 18.616468 49.494705 255 255 255
-32.485592 19.907194 49.494705 255 255 255
-31.678991 21.167227 49.494705 255 255 255
-30.823547 22.394617 49.494705 255 255 255
-29.920574 23.587479 49.494705 255 255 255
-28.971466 24.743971 49.494705 255 255 255
-27.977688 25.862309 49.494705 255 255 255
-26.940767 26.940767 49.494705 255 255 255
-25.862309 27.977688 49.494705 255 255 255
-24.743971 28.971466 49.494705 255 255 255
-23.587479 29.920574 49.494705 255 255 255
-22.394617 30.823547 49.494705 255 255 255
-21.167227 31.678991 49.494705 255 255 255
-19.907194 32.485592 49.494705 255 255 255
-18.616468 33.2421 49.494705 255 255 255
-17.297037 33.94735 49.494705 255 255 255
-15.950936 34.600254 49.494705 255 255 255
-14.580239 35.19981 49.494705 255 255 255
-13.18706 35.74509 49.494705 255 255 255
-11.773547 36.235252 49.494705 255 255 255
-10.341881 36.669544 49.494705 255 255 255
-8.894268 37.047295 49.494705 255 255 255
-7.432941 37.36792 49.494705 255 255 255
-5.9601531 37.630924 49.494705 255 255 255
-4.4781752 37.835907 49.494705 255 255 255
-2.9892919 37.982552 49.494705 255 255 255
-1.4957989 38.070625 49.494705 255 255 255
0 38.099998 49.494705 255 255 255
1.4957989 38.070625 49.494705 255 255 255
2.9892919 37.982552 49.494705 255 255 255
4.4781752 37.835907 49.494705 255 255 255
5.9601531 37.630924 49.494705 255 255 255
7.432941 37.36792 49.494705 255 255 255
8.894268 37.047295 49.494705 255 255 255
10.341881 36.669544 49.494705 255 255 255
11.773547 36.235252 49.494705 255 255 255
13.18706 35.74509 49.494705 255 255 255
14.580239 35.19981 49.494705 255 255 255
15.950936 34.600254 49.494705 255 255 255
17.297037 33.94735 49.494705 255 255 255
18.616468 33.2421 49.494705 255 255 255
19.907194 32.485592 49.494705 255 255 255
21.167227 31.678991 49.494705 255 255 255
22.394617 30.823547 49.494705 255 255 255
23.587479 29.920574 49.494705 255 255 255
24.743971 28.971466 49.494705 255 255 255
25.862309 27.977688 49.494705 255 255 255
26.940767 26.940767 49.494705 255 255 255
27.977688 25.862309 49.494705 255 255 255
28.971466 24.743971 49.494705 255 255 255
29.920574 23.587479 49.494705 255 255 255
30.823547 22.394617 49.494705 255 255 255
31.678991 21.167227 49.494705 255 255 255
32.485592 19.907194 49.494705 255 255 255
33.2421 18.616468 49.494705 255 255 255
33.94735 17.297037 49.494705 255 255 255
34.600254 15.950936 49.494705 255 255 255
35.19981 14.580239 49.494705 255 255 255
35.74509 13.18706 49.494705 255 255 255
36.235252 11.773547 49.494705 255 255 255
36.669544 10.341881 49.494705 255 255 255
37.047295 8.894268 49.494705 255 255 255
37.36792 7.432941 49.494705 255 255 255
37.630924 5.9601531 49.494705 255 255 255
37.835907 4.4781752 49.494705 255 255 255
37.982552 2.9892919 49.494705 255 255 255
38.070625 1.4957989 49.494705 255 255 255
38.099998 -0 49.494705 255 255 255
38.070625 -1.4957989 49.494705 255 255 255
37.982552 -2.9892919 49.494705 255 255 255
37.835907 -4.4781752 49.494705 255 255 255
37.630924 -5.9601531 49.494705 255 255 255
37.36792 -7.432941 49.494705 255 255 255
37.047295 -8.894268 49.494705 255 255 255
36.669544 -10.341881 49.494705 255 255 255
36.235252 -11.773547 49.494705 255 255 255
35.74509 -13.18706 49.494705 255 255 255
35.19981 -14.580239 49.494705 255 255 255
34.600254 -15.950936 49.494705 255 255 255
33.94735 -17.297037 49.494705 255 255 255
33.2421 -18.616468 49.494705 255 255 255
32.485592 -19.907194 49.494705 255 255 255
31.678991 -21.167227 49.494705 255 255 255
30.823547 -22.394617 49.494705 255 255 255
29.920574 -23.587479 49.494705 255 255 255
28.971466 -24.743971 49.494705 255 255 255
27.977688 -25.862309 49.494705 255 255 255
26.940767 -26.940767 49.494705 255 255 255
25.862309 -27.977688 49.494705 255 255 255
24.743971 -28.971466 49.494705 255 255 255
23.587479 -29.920574 49.494705 255 255 255
22.394617 -30.823547 49.494705 255 255 255
21.167227 -31.678991 49.494705 255 255 255
19.907194 -32.485592 49.494705 255 255 255
18.616468 -33.2421 49.494705 255 255 255
17.297037 -33.94735 49.494705 255 255 255
15.950936 -34.600254 49.494705 255 255 255
14.580239 -35.19981 49.494705 255 255 255
13.18706 -35.74509 49.494705 255 255 255
11.773547 -36.235252 49.494705 255 255 255
10.341881 -36.669544 49.494705 255 255 255
8.894268 -37.047295 49.494705 255 255 255
7.432941 -37.36792 49.494705 255 255 255
5.9601531 -37.630924 49.494705 255 255 255
4.4781752 -37.835907 49.494705 255 255 255
2.9892919 -37.982552 49.494705 255 255 255
1.4957989 -38.070625 49.494705 255 255 255
-0 -38.099998 49.494705 255 255 255
-1.4957989 -38.070625 49.494705 255 255 255
-2.9892919 -37.982552 49.494705 255 255 255
-4.4781752 -37.835907 49.494705 255 255 255
-5.9601531 -37.630924 49.494705 255 255 255
-7.432941 -37.36792 49.494705 255 255 255
-8.894268 -37.047295 49.494705 255 255 255
-10.341881 -36.669544 49.494705 255 255 255
-11.773547 -36.235252 49.494705 255 255 255
-13.18706 -35.74509 49.494705 255 255 255
-14.580239 -35.19981 49.494705 255 255 255
-15.950936 -34.600254 49.494705 255 255 255
-17.297037 -33.94735 49.494705 255 255 255
-18.616468 -33.2421 49.494705 255 255 255
-19.907194 -32.485592 49.494705 255 255 255
-21.167227 -31.678991 49.494705 255 255 255
-22.394617 -30.823547 49.494705 255 255 255
-23.587479 -29.920574 49.494705 255 255 255
-24.743971 -28.971466 49.494705 255 255 255
-25.862309 -27.977688 49.494705 255 255 255
-26.940767 -26.940767 49.494705 255 255 255
-27.977688 -25.862309 49.494705 255 255 255
-28.971466 -24.743971 49.494705 255 255 255
-29.920574 -23.587479 49.494705 255 255 255
-30.823547 -22.394617 49.494705 255 255 255
-31.678991 -21.167227 49.494705 255 255 255
-32.485592 -19.907194 49.494705 255 255 255
-33.2421 -18.616468 49.494705 255 255 255
-33.94735 -17.297037 49.494705 255 255 255
-34.600254 -15.950936 49.494705 255 255 255
-35.19981 -14.580239 49.494705 255 255 255
-35.74509 -13.18706 49.494705 255 255 255
-36.235252 -11.773547 49.494705 255 255 255
-36.669544 -10.341881 49.494705 255 255 255
-37.047295 -8.894268 49.494705 255 255 255
-37.36792 -7.432941 49.494705 255 255 255
-37.630924 -5.9601531 49.494705 255 255 255
-37.835907 -4.4781752 49.494705 255 255 255
-37.982552 -2.9892919 49.494705 255 255 255
-38.070625 -1.4957989 49.494705 255 255 255
-35.528809 1.489098 49.494705 255 255 255
-35.435287 2.975584 49.494705 255 255 255
-35.279598 4.4568501 49.494705 255 255 255
-35.062019 5.9302969 49.494705 255 255 255
-34.782928 7.3933401 49.494705 255 255 255
-34.442818 8.8434124 49.494705 255 255 255
-34.042282 10.277971 49.494705 255 255 255
-33.582024 11.694498 49.494705 255 255 255
-33.062851 13.090509 49.494705 255 255 255
-32.485676 14.463555 49.494705 255 255 255
-31.851509 15.811227 49.494705 255 255 255
-31.161467 17.131161 49.494705 255 255 255
-30.416754 18.42104 49.494705 255 255 255
-29.618679 19.678602 49.494705 255 255 255
-28.768644 20.901644 49.494705 255 255 255
-27.868139 22.088015 49.494705 255 255 255
-26.918743 23.235638 49.494705 255 255 255
-25.922125 24.342495 49.494705 255 255 255
-24.880028 25.406649 49.494705 255 255 255
-23.794285 26.426229 49.494705 255 255 255
-22.666798 27.39945 49.494705 255 255 255
-21.499544 28.324604 49.494705 255 255 255
-20.294575 29.200066 49.494705 255 255 255
-19.054001 30.024302 49.494705 255 255 255
-17.780001 30.795862 49.494705 255 255 255
-16.474808 31.513399 49.494705 255 255 255
-15.140712 32.175652 49.494705 255 255 255
-13.780054 32.781452 49.494705 255 255 255
-12.395222 33.329746 49.494705 255 255 255
-10.988644 33.819569 49.494705 255 255 255
-9.562789 34.250061 49.494705 255 255 255
-8.1201572 34.620464 49.494705 255 255 255
-6.66328 34.930134 49.494705 255 255 255
-5.1947122 35.178524 49.494705 255 255 255
-3.717032 35.3652 49.494705 255 255 255
-2.232831 35.48983 49.494705 255 255 255
-0.744712 35.5522 49.494705 255 255 255
0.744712 35.5522 49.494705 255 255 255
2.232831 35.48983 49.494705 255 255 255
3.717032 35.3652 49.494705 255 255 255
5.1947122 35.178524 49.494705 255 255 255
6.66328 34.930134 49.494705 255 255 255
8.1201572 34.620464 49.494705 255 255 255
9.562789 34.250061 49.494705 255 255 255
10.988644 33.819569 49.494705 255 255 255
12.395222 33.329746 49.494705 255 255 255
13.780054 32.781452 49.494705 255 255 255
15.140712 32.175652 49.494705 255 255 255
16.474808 31.513399 49.494705 255 255 255
17.780001 30.795862 49.494705 255 255 255
19.054001 30.024302 49.494705 255 255 255
20.294575 29.200066 49.494705 255 255 255
21.499544 28.324604 49.494705 255 255 255
22.666798 27.39945 49.494705 255 255 255
23.794285 26.426229 49.494705 255 255 255
24.880028 25.406649 49.494705 255 255 255
25.922125 24.342495 49.494705 255 255 255
26.918743 23.235638 49.494705 255 255 255
27.868139 22.088015 49.494705 255 255 255
28.768644 20.901644 49.494705 255 255 255
29.618679 19.678602 49.494705 255 255 255
30.416754 18.42104 49.494705 255 255 255
31.161467 17.131161 49.494705 255 255 255
31.851509 15.811227 49.494705 255 255 255
32.485676 14.463555 49.494705 255 255 255
33.062851 13.090509 49.494705 255 255 255
33.582024 11.694498 49.494705 255 255 255
34.042282 10.277971 49.494705 255 255 255
34.442818 8.8434124 49.494705 255 255 255
34.782928 7.3933401 49.494705 255 255 255
35.062019 5.9302969 49.494705 255 255 255
35.279598 4.4568501 49.494705 255 255 255
35.435287 2.975584 49.494705 255 255 255
35.528809 1.489098 49.494705 255 255 255
35.560001 -0 49.494705 255 255 255
35.528809 -1.489098 49.494705 255 255 255
35.435287 -2.975584 49.494705 255 255 255
35.279598 -4.4568501 49.494705 255 255 255
35.062019 -5.9302969 49.494705 255 255 255
34.782928 -7.3933401 49.494705 255 255 255
34.442818 -8.8434124 49.494705 255 255 255
34.042282 -10.277971 49.494705 255 255 255
33.582024 -11.694498 49.494705 255 255 255
33.062851 -13.090509 49.494705 255 255 255
32.485676 -14.463555 49.494705 255 255 255
31.851509 -15.811227 49.494705 255 255 255
31.161467 -17.131161 49.494705 255 255 255
30.416754 -18.42104 49.494705 255 255 255
29.618679 -19.678602 49.494705 255 255 255
28.768644 -20.901644 49.494705 255 255 255
27.868139 -22.088015 49.494705 255 255 255
26.918743 -23.235638 49.494705 255 255 255
25.922125 -24.342495 49.494705 255 255 255
24.880028 -25.406649 49.494705 255 255 255
23.794285 -26.426229 49.494705 255 255 255
22.666798 -27.39945 49.494705 255 255 255
21.499544 -28.324604 49.494705 255 255 255
20.294575 -29.200066 49.494705 255 255 255
19.054001 -30.024302 49.494705 255 255 255
17.780001 -30.795862 49.494705 255 255 255
16.474808 -31.513399 49.494705 255 255 255
15.140712 -32.175652 49.494705 255 255 255
13.780054 -32.781452 49.494705 255 255 255
12.395222 -33.329746 49.494705 255 255 255
10.988644 -33.819569 49.494705 255 255 255
9.562789 -34.250061 49.494705 255 255 255
8.1201572 -34.620464 49.494705 255 255 255
6.66328 -34.930134 49.494705 255 255 255
5.1947122 -35.178524 49.494705 255 255 255
3.717032 -35.3652 49.494705 255 255 255
2.232831 -35.48983 49.494705 255 255 255
0.744712 -35.5522 49.494705 255 255 255
-0.744712 -35.5522 49.494705 255 255 255
-2.232831 -35.48983 49.494705 255 255 255
-3.717032 -35.3652 49.494705 255 255 255
-5.1947122 -35.178524 49.494705 255 255 255
-6.66328 -34.930134 49.494705 255 255 255
-8.1201572 -34.620464 49.494705 255 255 255
-9.562789 -34.250061 49.494705 255 255 255
-10.988644 -33.819569 49.494705 255 255 255
-12.395222 -33.329746 49.494705 255 255 255
-13.780054 -32.781452 49.494705 255 255 255
-15.140712 -32.175652 49.494705 255 255 255
-16.474808 -31.513399 49.494705 255 255 255
-17.780001 -30.795862 49.494705 255 255 255
-19.054001 -30.024302 49.494705 255 255 255
-20.294575 -29.200066 49.494705 255 255 255
-21.499544 -28.324604 49.494705 255 255 255
-22.666798 -27.39945 49.494705 255 255 255
-23.794285 -26.426229 49.494705 255 255 255
-24.880028 -25.406649 49.494705 255 255 255
-25.922125 -24.342495 49.494705 255 255 255
-26.918743 -23.235638 49.494705 255 255 255
-27.868139 -22.088015 49.494705 255 255 255
-28.768644 -20.901644 49.494705 255 255 255
-29.618679 -19.678602 49.494705 255 255 255
-30.416754 -18.42104 49.494705 255 255 255
-31.161467 -17.131161 49.494705 255 255 255
-31.851509 -15.811227 49.494705 255 255 255
-32.485676 -14.463555 49.494705 255 255 255
-33.062851 -13.090509 49.494705 255 255 255
-33.582024 -11.694498 49.494705 255 255 255
-34.042282 -10.277971 49.494705 255 255 255
-34.442818 -8.8434124 49.494705 255 255 255
-34.782928 -7.3933401 49.494705 255 255 255
-35.062019 -5.9302969 49.494705 255 255 255
-35.279598 -4.4568501 49.494705 255 255 255
-35.435287 -2.975584 49.494705 255 255 255
-35.528809 -1.489098 49.494705 255 255 255
-25.741457 10.863746 -53.375298 255 255 255
-20.017365 19.492273 -53.375298 255 255 255
-18.952032 20.529591 -53.375298 255 255 255
-17.833025 21.508762 -53.375298 255 255 255
27.930098 -0.74377698 -53.375298 255 255 255
14.183626 -24.072149 -53.375298 255 255 255
12.882827 -24.792667 -53.375298 255 255 255
11.545134 -25.443142 -53.375298 255 255 255
10.174661 -26.021526 -53.375298 255 255 255
8.7754078 -26.526134 -53.375298 255 255 255
7.351707 -26.955444 -53.375298 255 255 255
-2.9704809 -27.781647 -53.375298 255 255 255
-4.4443431 -27.584261 -53.375298 255 255 255
-5.9060488 -27.308647 -53.375298 255 255 255
-7.3510861 -26.955614 -53.375298 255 255 255
-8.7752857 -26.526175 -53.375298 255 255 255
-10.174544 -26.021572 -53.375298 255 255 255
-11.544561 -25.443401 -53.375298 255 255 255
-20.018173 -19.491442 -53.375298 255 255 255
-21.026476 -18.39921 -53.375298 255 255 255
-26.283382 -9.4777308 -53.375298 255 255 255
-26.750399 -8.0659647 -53.375298 255 255 255
-27.141729 -6.6309972 -53.375298 255 255 255
-27.456076 -5.177597 -53.375298 255 255 255
-37.179165 -8.1299162 49.07135 255 255 255
-37.179165 8.1299162 49.07135 255 255 255
-19.244738 -32.831425 49.05513 255 255 255
19.244595 -32.831467 49.054756 255 255 255
19.244738 32.831425 49.05513 255 255 255
-19.244595 32.831467 49.054756 255 255 255
-7.8516898 -37.203682 48.726601 255 255 255
7.8516898 37.203682 48.726601 255 255 255
8.1404495 -37.176029 49.063229 255 255 255
-8.1404495 37.176029 49.063229 255 255 255
-31.016327 -21.994755 48.729057 255 255 255
31.016302 -21.994804 48.729172 255 255 255
31.016258 21.994864 48.729153 255 255 255
-31.016325 21.994755 48.729057 255 255 255
0 0 0 1 0 0 0 1 0 0 0 1 0 0 0 0 0 691 1 0 0
